<svg role="img" xmlns="http://www.w3.org/2000/svg">
    <symbol id="flickr" viewBox="0 0 24 24">
        <path d="M0 12c0 3.074 2.494 5.564 5.565 5.564 3.075 0 5.569-2.49 5.569-5.564S8.641 6.436 5.565 6.436C2.495 6.436 0 8.926 0 12zm12.866 0c0 3.074 2.493 5.564 5.567 5.564C21.496 17.564 24 15.074 24 12s-2.492-5.564-5.564-5.564c-3.075 0-5.57 2.49-5.57 5.564z"/>
    </symbol>
    <symbol id="twitter" viewBox="0 0 24 24">
        <path d="M23.954 4.569c-.885.389-1.83.654-2.825.775 1.014-.611 1.794-1.574 2.163-2.723-.951.555-2.005.959-3.127 1.184-.896-.959-2.173-1.559-3.591-1.559-2.717 0-4.92 2.203-4.92 4.917 0 .39.045.765.127 1.124C7.691 8.094 4.066 6.13 1.64 3.161c-.427.722-.666 1.561-.666 2.475 0 1.71.87 3.213 2.188 4.096-.807-.026-1.566-.248-2.228-.616v.061c0 2.385 1.693 4.374 3.946 4.827-.413.111-.849.171-1.296.171-.314 0-.615-.03-.916-.086.631 1.953 2.445 3.377 4.604 3.417-1.68 1.319-3.809 2.105-6.102 2.105-.39 0-.779-.023-1.17-.067 2.189 1.394 4.768 2.209 7.557 2.209 9.054 0 13.999-7.496 13.999-13.986 0-.209 0-.42-.015-.63.961-.689 1.8-1.56 2.46-2.548l-.047-.02z"/>
    </symbol>
    <symbol id="codepen" viewBox="0 0 24 24">
        <path d="M24 8.182l-.018-.087-.017-.05c-.01-.024-.018-.05-.03-.075-.003-.018-.015-.034-.02-.05l-.035-.067-.03-.05-.044-.06-.046-.045-.06-.045-.046-.03-.06-.044-.044-.04-.015-.02L12.58.19c-.347-.232-.796-.232-1.142 0L.453 7.502l-.015.015-.044.035-.06.05-.038.04-.05.056-.037.045-.05.06c-.02.017-.03.03-.03.046l-.05.06-.02.06c-.02.01-.02.04-.03.07l-.01.05C0 8.12 0 8.15 0 8.18v7.497c0 .044.003.09.01.135l.01.046c.005.03.01.06.02.086l.015.05c.01.027.016.053.027.075l.022.05c0 .01.015.04.03.06l.03.04c.015.01.03.04.045.06l.03.04.04.04c.01.013.01.03.03.03l.06.042.04.03.01.014 10.97 7.33c.164.12.375.163.57.163s.39-.06.57-.18l10.99-7.28.014-.01.046-.037.06-.043.048-.036.052-.058.033-.045.04-.06.03-.05.03-.07.016-.052.03-.077.015-.045.03-.08v-7.5c0-.05 0-.095-.016-.14l-.014-.045.044.003zm-11.99 6.28l-3.65-2.44 3.65-2.442 3.65 2.44-3.65 2.44zm-1.034-6.674l-4.473 2.99L2.89 8.362l8.086-5.39V7.79zm-6.33 4.233l-2.582 1.73V10.3l2.582 1.726zm1.857 1.25l4.473 2.99v4.82L2.89 15.69l3.618-2.417v-.004zm6.537 2.99l4.474-2.98 3.613 2.42-8.087 5.39v-4.82zm6.33-4.23l2.583-1.72v3.456l-2.583-1.73zm-1.855-1.24L13.042 7.8V2.97l8.085 5.39-3.612 2.415v.003z"/>
    </symbol>
    <symbol id="github" viewBox="0 0 24 24">
        <path d="M12 .297c-6.63 0-12 5.373-12 12 0 5.303 3.438 9.8 8.205 11.385.6.113.82-.258.82-.577 0-.285-.01-1.04-.015-2.04-3.338.724-4.042-1.61-4.042-1.61C4.422 18.07 3.633 17.7 3.633 17.7c-1.087-.744.084-.729.084-.729 1.205.084 1.838 1.236 1.838 1.236 1.07 1.835 2.809 1.305 3.495.998.108-.776.417-1.305.76-1.605-2.665-.3-5.466-1.332-5.466-5.93 0-1.31.465-2.38 1.235-3.22-.135-.303-.54-1.523.105-3.176 0 0 1.005-.322 3.3 1.23.96-.267 1.98-.399 3-.405 1.02.006 2.04.138 3 .405 2.28-1.552 3.285-1.23 3.285-1.23.645 1.653.24 2.873.12 3.176.765.84 1.23 1.91 1.23 3.22 0 4.61-2.805 5.625-5.475 5.92.42.36.81 1.096.81 2.22 0 1.606-.015 2.896-.015 3.286 0 .315.21.69.825.57C20.565 22.092 24 17.592 24 12.297c0-6.627-5.373-12-12-12"/>
    </symbol>
    <symbol id="tumblr" viewBox="0 0 24 24">
        <path d="M14.563 24c-5.093 0-7.031-3.756-7.031-6.411V9.747H5.116V6.648c3.63-1.313 4.512-4.596 4.71-6.469C9.84.051 9.941 0 9.999 0h3.517v6.114h4.801v3.633h-4.82v7.47c.016 1.001.375 2.371 2.207 2.371h.09c.631-.02 1.486-.205 1.936-.419l1.156 3.425c-.436.636-2.4 1.374-4.156 1.404h-.178l.011.002z"/>
    </symbol>
    <symbol id="mltshp" viewBox="0 0 100 100">
        <path class="cls-1" d="M20.87 99.88l-1-9.3-.37-.58c.08-.2.17-.39.26-.58l-.13-.26-.14-.3c.1-.19.21-.37.32-.55-.08-.19-.15-.38-.22-.58.12-.18.24-.35.37-.52-.06-.2-.12-.4-.17-.6.13-.17.27-.33.41-.48 0-.2-.08-.41-.11-.62.15-.16.3-.3.46-.45 0-.21 0-.42-.05-.63.17-.14.33-.28.5-.4v-.63c.18-.12.35-.24.53-.35v-.39-.24l.56-.3c0-.21.08-.41.13-.62l.59-.24.18-.6.61-.19c.07-.19.15-.38.24-.58l.63-.13q.14-.28.29-.56l.63-.07.18-.12.29-.2 13-8.79a18.82 18.82 0 0 1-4.33-5.06 2.42 2.42 0 0 1 4.19-2.43 14 14 0 0 0 24.24 0 2.42 2.42 0 1 1 4.19 2.43A18.92 18.92 0 0 1 51 74.31a18.72 18.72 0 0 1-8-1.79L27.83 82.83c0 .09-.05.18-.08.28v.18l-.47-.06c0 .16-.06.31-.08.47h-.47v.47h-.47v.47l-.47.07c0 .16 0 .31.05.47l-.45.11c0 .15.06.31.1.46L25 86c0 .13.08.25.12.38l-.43.2c.05.15.12.29.18.43l-.41.24c.07.14.15.28.22.42l-.38.27c.08.14.17.27.26.39l-.36.31.29.37-.33.34.33.34-.3.37v.05l1.09 9.7"/>
        <path class="cls-1" d="M100 0H0v100h22c-.38-1.59-.86-4-.92-4.23-.7-2.93-1.76-5.82-1.2-8.86.76-4.13 3.87-6.7 7.18-8.92Q33 74 39 69.95a18.56 18.56 0 0 1-4.89-6.12c.64-3.13 3.7-3.19 4.76-1.37a14 14 0 0 0 24.76-1c3.11-1.09 4.74 1.57 3.67 3.41A18.92 18.92 0 0 1 51 74.31a18.72 18.72 0 0 1-8-1.79l-7.2 4.87-5.16 3.5-1.85 1.26c-1.4 1-3.05 2.21-3.75 3.84-2 4.74.89 8.25 1 14H100z"/>
        <path class="cls-2" style="fill: rgba(0, 0, 0, 0.9)" d="M25.09 86c.69-1.63 2.34-2.87 3.75-3.84l1.85-1.26 5.16-3.5L43 72.52a18.72 18.72 0 0 0 8 1.79 18.92 18.92 0 0 0 16.31-9.42 2.42 2.42 0 1 0-4.19-2.43 14 14 0 0 1-24.24 0 2.42 2.42 0 0 0-4.19 2.43A18.82 18.82 0 0 0 39 69.95Q33 74 27 78c-3.31 2.22-6.42 4.79-7.18 8.92-.56 3 .5 5.93 1.2 8.86.06.26.54 2.64.92 4.23h4.55l-1.09-4.84c-.76-3.23-1.7-5.91-.31-9.17zM23.73 35.42a9.9 9.9 0 0 0 19.8 0 9.9 9.9 0 1 0-19.8 0zM57.61 35.42a9.9 9.9 0 0 0 19.8 0 9.9 9.9 0 1 0-19.8 0z"/>
    </symbol>
</svg>
